<svg width="256" height="256" viewBox="0 0 256 256" fill="none" xmlns="http://www.w3.org/2000/svg">
  <rect width="256" height="256" rx="48" fill="#203354" />
  <path
    d="M64 192V72c0-8.837 7.163-16 16-16h48c16.569 0 32 13.431 32 30v18c0 8.284 6.716 15 15 15h17c4.418 0 8 3.582 8 8v65c0 8.837-7.163 16-16 16H80c-8.837 0-16-7.163-16-16z"
    fill="#F6AA1C"
  />
  <path
    d="M96 96h32c8.837 0 16 7.163 16 16v16c0 17.673 14.327 32 32 32"
    stroke="#FDF7EB"
    stroke-width="12"
    stroke-linecap="round"
  />
</svg>
